<?xml version="1.0" standalone="no"?><svg xmlns="http://www.w3.org/2000/svg" viewBox="0 0 1440 320"><path fill="#ffa500" fill-opacity="1" d="M0,32L34.3,74.7C68.6,117,137,203,206,197.3C274.3,192,343,96,411,90.7C480,85,549,171,617,170.7C685.7,171,754,85,823,85.3C891.4,85,960,171,1029,181.3C1097.1,192,1166,128,1234,112C1302.9,96,1371,128,1406,144L1440,160L1440,320L1405.7,320C1371.4,320,1303,320,1234,320C1165.7,320,1097,320,1029,320C960,320,891,320,823,320C754.3,320,686,320,617,320C548.6,320,480,320,411,320C342.9,320,274,320,206,320C137.1,320,69,320,34,320L0,320Z"></path></svg>